<?xml version="1.0" ?>
<!-- Uploaded to: SVG Repo, www.svgrepo.com, Generator: SVG Repo Mixer Tools -->
<svg fill="#000000" width="800px" height="800px" viewBox="0 0 64 64" xmlns="http://www.w3.org/2000/svg">
<title/>
<g data-name="Warehouse 1" id="Warehouse_1">
<path d="M60,59H58V30s0-.08,0-.11a1.18,1.18,0,0,0,0-.2,1,1,0,0,0-.08-.18l-.11-.15a.67.67,0,0,0-.15-.14s-.05-.06-.09-.08l-25-15a1,1,0,0,0-1,0l-25,15s-.06.06-.09.08a.67.67,0,0,0-.15.14.91.91,0,0,0-.11.16.67.67,0,0,0-.08.17,1.18,1.18,0,0,0,0,.2S6,30,6,30V59H4a1,1,0,0,0,0,2H60a1,1,0,0,0,0-2ZM19,59H13V49h6Zm32,0H27V39H51Zm5,0H53V38a1,1,0,0,0-1-1H26a1,1,0,0,0-1,1V59H21V48a1,1,0,0,0-1-1H12a1,1,0,0,0-1,1V59H8V30.57l24-14.4,24,14.4Z"/>
<path d="M37,35h4a1,1,0,0,0,0-2H37a1,1,0,0,0,0,2Z"/>
<path d="M32,45H46a1,1,0,0,0,0-2H32a1,1,0,0,0,0,2Z"/>
<path d="M32,50H46a1,1,0,0,0,0-2H32a1,1,0,0,0,0,2Z"/>
<path d="M32,55H46a1,1,0,0,0,0-2H32a1,1,0,0,0,0,2Z"/>
<path d="M18,43H14a1,1,0,0,0,0,2h4a1,1,0,0,0,0-2Z"/>
</g>
</svg>