<?xml version="1.0" encoding="iso-8859-1"?>
<!-- Generator: Adobe Illustrator 19.0.0, SVG Export Plug-In . SVG Version: 6.00 Build 0)  -->
<svg version="1.1" id="Layer_1" xmlns="http://www.w3.org/2000/svg" xmlns:xlink="http://www.w3.org/1999/xlink" x="0px" y="0px"
	 viewBox="0 0 512 512" style="enable-background:new 0 0 512 512;" xml:space="preserve">
<polyline style="fill:#F15A24;" points="375.567,132.306 375.567,212.343 472.236,212.343 472.236,132.306 "/>
<path style="fill:#8CC63F;" d="M472.192,131.775h-96.036c-17.68,0-32.012-14.332-32.012-32.012l0,0h160.06l0,0
	C504.204,117.443,489.872,131.775,472.192,131.775z"/>
<polyline style="fill:#F15A24;" points="344.384,146.858 344.384,379.694 7.604,379.694 7.604,43.953 344.384,43.953 
	344.384,84.491 "/>
<rect x="32.028" y="67.751" style="fill:#8CC63F;" width="288.103" height="288.103"/>
<circle style="fill:#FFFFFF;" cx="176.082" cy="211.808" r="80.03"/>
<path d="M327.931,363.654H24.233V59.955h303.699v303.699H327.931z M39.824,348.063H312.34V75.547H39.824V348.063z"/>
<g>
	<rect x="136.49" y="196.746" style="fill:#F15A24;" width="15.592" height="30.144"/>
	<rect x="199.896" y="196.746" style="fill:#F15A24;" width="15.592" height="30.144"/>
</g>
<path d="M176.081,123.979c-48.427,0-87.825,39.398-87.825,87.826s39.398,87.826,87.825,87.826c48.428,0,87.826-39.398,87.826-87.826
	C263.908,163.378,224.509,123.979,176.081,123.979z M183.27,283.68v-16.246h-15.592v16.101c-35.883-4.179-63.83-34.743-63.83-71.73
	c0-36.986,27.948-67.55,63.83-71.729v16.137h15.592V139.93c36.467,3.62,65.045,34.471,65.045,71.875
	C248.316,249.209,219.738,280.06,183.27,283.68z"/>
<g>
	<rect x="191.58" y="316.293" style="fill:#FFFFFF;" width="16.631" height="15.592"/>
	<rect x="167.673" y="316.293" style="fill:#FFFFFF;" width="16.631" height="15.592"/>
	<rect x="143.766" y="316.293" style="fill:#FFFFFF;" width="16.631" height="15.592"/>
</g>
<polygon points="351.66,386.97 0.327,386.97 0.327,36.677 351.66,36.677 351.66,84.491 336.069,84.491 336.069,52.269 
	15.919,52.269 15.919,371.379 336.069,371.379 336.069,146.858 351.66,146.858 "/>
<rect x="383.878" y="228.969" style="fill:#8CC63F;" width="80.037" height="15.592"/>
<path d="M472.236,91.967V76.176h-15.592v15.791h-57.17V76.176h-15.592v15.791h-47.534v7.796c0,19.258,13.747,35.363,31.942,39.024
	v80.833h111.221v-80.735C497.977,135.437,512,119.212,512,99.763v-7.796L472.236,91.967L472.236,91.967z M383.883,204.028v-64.457
	h80.037v64.457H383.883z M472.192,123.979h-96.036c-10.627,0-19.677-6.881-22.929-16.42H495.12
	C491.869,117.099,482.82,123.979,472.192,123.979z"/>
<g>
	<rect x="456.639" y="11.73" style="fill:#F15A24;" width="15.592" height="55.091"/>
	<rect x="383.878" y="11.73" style="fill:#F15A24;" width="15.592" height="55.091"/>
	<rect x="400.509" y="251.837" style="fill:#F15A24;" width="47.815" height="15.592"/>
</g>
<rect x="416.101" y="276.794" style="fill:#8CC63F;" width="15.592" height="15.592"/>
<path d="M393.472,500.27H189.395c-15.331,0-27.803-12.59-27.803-28.065c0-15.475,12.472-28.065,27.803-28.065h96.037
	c6.732,0,12.211-5.487,12.211-12.232c0-6.739-5.479-12.222-12.211-12.222L0,419.11l0.031-15.592l285.416,0.577
	c15.314,0,27.786,12.476,27.786,27.813c0,15.342-12.472,27.824-27.803,27.824h-96.037c-6.619,0-12.211,5.712-12.211,12.473
	c0,6.762,5.592,12.473,12.211,12.473h204.078c13.353,0,24.216-10.99,24.216-24.499l-1.31-160.278l15.592-0.127l1.31,160.342
	C433.28,482.285,415.422,500.27,393.472,500.27z"/>
<rect x="416.101" y="164.524" style="fill:#FFFFFF;" width="15.592" height="15.592"/>
<g>
</g>
<g>
</g>
<g>
</g>
<g>
</g>
<g>
</g>
<g>
</g>
<g>
</g>
<g>
</g>
<g>
</g>
<g>
</g>
<g>
</g>
<g>
</g>
<g>
</g>
<g>
</g>
<g>
</g>
</svg>
